<?xml version="1.0" standalone="no"?>
<!DOCTYPE svg PUBLIC "-//W3C//DTD SVG 20010904//EN"
 "http://www.w3.org/TR/2001/REC-SVG-20010904/DTD/svg10.dtd">
<svg version="1.0" xmlns="http://www.w3.org/2000/svg"
 width="738.000000pt" height="738.000000pt" viewBox="0 0 738.000000 738.000000"
 preserveAspectRatio="xMidYMid meet">
<metadata>
Created by potrace 1.11, written by Peter Selinger 2001-2013
</metadata>
<g transform="translate(0.000000,738.000000) scale(0.100000,-0.100000)"
fill="#000000" stroke="none">
<path d="M1029 6356 c-2 -2 -24 -7 -49 -10 -150 -20 -355 -110 -474 -209 -202
-167 -327 -378 -371 -631 -13 -78 -15 -355 -14 -2335 1 -2434 -2 -2312 55
-2480 28 -82 88 -199 138 -269 49 -69 182 -197 254 -245 85 -56 169 -98 252
-125 159 -52 64 -50 2370 -48 1180 1 2155 4 2168 8 12 4 57 16 99 28 341 93
615 373 711 725 l27 100 0 2315 0 2315 -27 98 c-85 301 -283 542 -550 666 -79
37 -137 56 -246 81 -85 19 -142 19 -2213 20 -1169 0 -2128 -2 -2130 -4z m4317
-28 c11 -3 52 -14 90 -23 330 -83 624 -374 709 -704 8 -31 17 -69 22 -86 4
-16 9 -1056 10 -2310 3 -2460 5 -2330 -49 -2500 -32 -101 -129 -280 -160 -293
-5 -2 -8 -8 -8 -14 0 -18 -142 -152 -208 -197 -123 -83 -237 -132 -382 -162
-80 -16 -216 -17 -2205 -18 -1841 0 -2131 2 -2200 15 -124 23 -218 58 -335
125 -46 26 -155 113 -205 163 -112 112 -213 293 -257 456 l-23 85 -2 2280 c-1
1415 2 2303 8 2340 18 114 71 264 130 365 48 83 164 214 245 277 119 93 293
170 444 198 62 11 441 13 2215 11 1177 -1 2149 -4 2161 -8z"/>
<path d="M4970 6027 c-84 -25 -178 -73 -227 -115 -32 -27 -33 -30 -33 -107 l0
-79 33 31 c45 43 142 105 207 134 48 21 70 24 180 24 146 0 187 -14 258 -86
55 -56 84 -132 86 -229 6 -202 -79 -341 -319 -523 -5 -4 -68 -51 -139 -104
-171 -128 -256 -211 -301 -296 -51 -94 -65 -145 -71 -269 l-6 -108 506 0 506
0 0 65 0 65 -429 0 -430 0 3 33 c15 155 93 264 296 415 292 217 339 256 404
341 95 124 135 248 129 401 -7 192 -103 331 -274 401 -82 34 -276 36 -379 6z"/>
<path d="M3268 5475 c-2 -1 -41 -5 -88 -9 -99 -7 -155 -13 -225 -26 -27 -5
-63 -12 -80 -15 -101 -17 -308 -74 -347 -96 -10 -5 -23 -9 -29 -9 -41 0 -377
-169 -431 -218 -10 -8 -18 -12 -18 -9 0 4 -8 0 -17 -8 -10 -8 -45 -34 -78 -59
-117 -89 -202 -168 -310 -288 -48 -53 -195 -252 -195 -263 0 -3 -11 -22 -23
-43 -41 -64 -96 -170 -122 -235 -14 -34 -30 -71 -35 -82 -15 -31 -60 -164 -76
-225 -25 -92 -54 -219 -60 -258 -3 -20 -7 -48 -9 -62 -6 -31 -13 -99 -24 -210
-13 -132 -3 -509 15 -604 2 -11 6 -40 9 -65 3 -25 7 -57 10 -71 3 -14 7 -38
10 -55 4 -16 15 -68 27 -115 11 -47 21 -92 23 -100 7 -31 66 -203 96 -277 126
-317 382 -653 628 -823 20 -14 41 -29 47 -35 6 -5 27 -19 47 -30 20 -11 37
-23 37 -27 0 -5 4 -8 9 -8 5 0 35 -15 68 -33 77 -43 203 -99 283 -126 76 -26
89 -30 93 -30 1 0 29 -10 62 -21 33 -11 61 -20 63 -20 1 1 28 -4 60 -11 31 -6
66 -13 77 -15 11 -2 36 -6 55 -9 76 -12 107 -17 150 -20 25 -2 45 -4 45 -5 0
-7 394 -18 401 -11 2 2 41 5 86 6 102 3 231 15 320 29 18 3 49 8 68 10 37 6
127 23 210 41 8 2 15 4 15 5 0 1 9 3 20 5 11 2 31 6 45 10 14 3 36 8 50 11 24
5 141 40 170 51 16 7 33 11 53 16 6 1 17 5 22 8 6 4 28 12 50 19 22 7 46 17
53 23 9 7 12 229 12 1048 l0 1039 -22 1 c-30 1 -1307 1 -1331 0 -16 -1 -17
-13 -15 -153 l3 -153 113 0 c70 0 112 -3 112 -10 0 -7 3 -7 8 0 4 7 141 10
385 10 l377 0 1 -35 c1 -49 1 -1491 0 -1512 -1 -14 -54 -43 -73 -39 -5 0 -8
-4 -8 -9 0 -5 -3 -9 -7 -9 -5 1 -10 0 -13 -1 -3 -1 -12 -3 -20 -5 -8 -3 -46
-13 -84 -24 -38 -11 -73 -18 -77 -15 -5 3 -9 1 -9 -5 0 -5 -8 -9 -17 -9 -10 0
-34 -3 -53 -7 -19 -4 -46 -8 -60 -10 -14 -2 -43 -6 -65 -9 -108 -15 -188 -19
-387 -20 -120 -1 -218 1 -218 4 0 3 -19 6 -42 7 -55 1 -132 13 -248 39 -90 20
-99 22 -108 28 -5 3 -19 7 -33 10 -36 7 -130 42 -204 76 -36 16 -70 30 -75 30
-6 0 -10 5 -10 10 0 6 -4 10 -10 10 -14 0 -164 90 -172 103 -4 7 -8 8 -8 2 0
-7 -3 -7 -8 0 -4 6 -29 28 -57 49 -27 22 -57 47 -66 55 -9 9 -38 37 -65 63
-27 25 -65 65 -84 89 -19 23 -47 56 -62 73 -15 17 -28 35 -28 40 0 4 -13 25
-29 45 -57 72 -162 277 -206 401 -132 377 -174 871 -110 1285 4 22 9 54 11 70
7 43 65 278 72 290 4 6 7 15 8 21 1 6 19 53 40 105 127 314 328 576 579 754
78 56 103 72 125 82 8 4 17 9 20 12 19 22 321 155 344 152 3 0 25 7 48 15 24
9 54 18 68 20 14 2 53 11 88 20 34 8 86 17 115 20 28 3 103 11 164 18 62 7
163 11 225 10 116 -1 329 -14 338 -19 3 -2 32 -6 65 -10 75 -9 100 -13 100
-15 0 -2 6 -3 55 -13 93 -20 223 -63 323 -106 27 -12 52 -21 57 -21 6 0 110
279 110 295 0 12 -217 94 -295 112 -38 8 -50 11 -50 13 0 1 -11 3 -25 5 -14 2
-59 10 -100 18 -41 9 -95 18 -120 21 -25 3 -67 8 -95 12 -27 4 -70 8 -95 10
-51 5 -408 12 -412 9z"/>
</g>
</svg>
